<?xml version="1.0" encoding="UTF-8" standalone="no"?>
<!-- Created with Inkscape (http://www.inkscape.org/) -->

<svg
   xmlns:dc="http://purl.org/dc/elements/1.1/"
   xmlns:cc="http://creativecommons.org/ns#"
   xmlns:rdf="http://www.w3.org/1999/02/22-rdf-syntax-ns#"
   xmlns:svg="http://www.w3.org/2000/svg"
   xmlns="http://www.w3.org/2000/svg"
   xmlns:sodipodi="http://sodipodi.sourceforge.net/DTD/sodipodi-0.dtd"
   xmlns:inkscape="http://www.inkscape.org/namespaces/inkscape"
   width="210mm"
   height="297mm"
   viewBox="0 0 210 297"
   version="1.1"
   id="svg8"
   inkscape:version="0.92.4 (5da689c313, 2019-01-14)"
   sodipodi:docname="vector_line.svg">
  <defs
     id="defs2" />
  <sodipodi:namedview
     id="base"
     pagecolor="#ffffff"
     bordercolor="#666666"
     borderopacity="1.0"
     inkscape:pageopacity="0.0"
     inkscape:pageshadow="2"
     inkscape:zoom="1.4"
     inkscape:cx="255.11534"
     inkscape:cy="695.93377"
     inkscape:document-units="mm"
     inkscape:current-layer="layer1"
     showgrid="false"
     inkscape:window-width="3000"
     inkscape:window-height="1859"
     inkscape:window-x="-14"
     inkscape:window-y="-14"
     inkscape:window-maximized="1" />
  <metadata
     id="metadata5">
    <rdf:RDF>
      <cc:Work
         rdf:about="">
        <dc:format>image/svg+xml</dc:format>
        <dc:type
           rdf:resource="http://purl.org/dc/dcmitype/StillImage" />
        <dc:title></dc:title>
      </cc:Work>
    </rdf:RDF>
  </metadata>
  <g
     inkscape:label="Layer 1"
     inkscape:groupmode="layer"
     id="layer1">
    <path
       style="fill:none;stroke:#000000;stroke-width:0.26458332px;stroke-linecap:butt;stroke-linejoin:miter;stroke-opacity:1"
       d="m 33.450892,98.562497 c 0,-0.377975 -0.04688,-0.75887 0,-1.133927 0.02212,-0.177033 0.543692,-0.91236 0.566965,-0.944941 0.183079,-0.25631 0.329917,-0.548537 0.566965,-0.755951 0.316405,-0.276855 1.28374,-0.736365 1.700893,-0.944941 2.43687,-1.218436 -0.06082,-0.0088 2.078868,-0.944941 0.802396,-0.351049 2.320292,-1.031325 3.212798,-1.511903 0.447183,-0.240792 0.868646,-0.528818 1.322917,-0.755955 3.358285,-1.679141 -1.098135,0.740392 3.212796,-1.133927 0.85299,-0.370867 1.624917,-0.906952 2.456846,-1.322917 0.680823,-0.340413 1.391627,-0.617683 2.078869,-0.944941 0.01212,-0.0058 3.776868,-1.888722 3.779763,-1.889881 0.924811,-0.369925 1.907251,-0.581978 2.83482,-0.944941 1.266065,-0.495416 1.970098,-1.116092 3.212798,-1.700893 0.487008,-0.229179 1.020056,-0.348363 1.511903,-0.566962 0.955228,-0.424545 5.38484,-2.777932 5.480656,-2.834822 3.693406,-2.192962 1.11564,-1.519378 5.480656,-2.645834 4.453599,-1.149315 1.192419,-0.177641 5.669642,-0.566965 5.576668,-0.484925 -2.094896,-0.377976 2.83482,-0.377976 0.944941,0 1.889882,0 2.834823,0 0.440973,0 0.885349,0.0547 1.322916,0 0.576311,-0.07204 1.131377,-0.264072 1.700893,-0.377975 0.375748,-0.07515 0.752313,-0.154297 1.133927,-0.18899 0.313688,-0.02852 0.648312,0.10594 0.944941,0 1.702747,-0.608123 1.508437,-0.866224 2.645833,-1.889879 0.299824,-0.269843 0.673606,-0.457483 0.944941,-0.755954 0.36453,-0.400981 0.62996,-0.881943 0.944941,-1.322917 0.503968,-0.629959 0.960141,-1.301332 1.511906,-1.889879 0.39723,-0.423711 0.930458,-0.705794 1.322917,-1.13393 0.813046,-0.88696 0.717745,-1.284454 1.322916,-2.267857 0.284015,-0.461523 0.655561,-0.864735 0.944939,-1.322917 0.467336,-0.739944 0.855583,-1.52791 1.32292,-2.267855 0.28937,-0.458181 0.61453,-0.893384 0.94494,-1.322916 0.29998,-0.389983 0.68417,-0.716704 0.94494,-1.13393 0.37329,-0.59726 0.64213,-1.25398 0.94494,-1.889882 0.60097,-1.262031 1.07838,-2.29022 1.5119,-3.590772 0.14503,-0.435083 0.20159,-0.899578 0.37798,-1.322916 0.14128,-0.339072 0.39281,-0.621522 0.56696,-0.944941 0.71843,-0.949185 0.66063,-1.510244 1.13393,-2.456847 0.71018,-1.420362 0.45947,-0.433469 0.94494,-1.889879 0.23483,-0.704474 0.18899,-0.667075 0.18899,-1.322916 0,-0.251987 -0.0936,-0.521992 0,-0.755955 0.0523,-0.130789 0.29984,-0.07178 0.37798,-0.188986 0.0699,-0.104834 0,-0.251984 0,-0.377976 0,-0.125995 0,-0.251987 0,-0.377979"
       id="path3713"
       inkscape:connector-curvature="0" />
  </g>
</svg>
